<svg width="60" height="60" viewBox="0 0 60 60" fill="none" xmlns="http://www.w3.org/2000/svg">
<path d="M37.4996 10L37.1147 10.1283C32.8656 11.5447 29.9996 15.5211 29.9996 20V13.6485C29.9996 10.0734 27.4761 6.99531 23.9705 6.29417L17.4996 5V6.35147C17.4996 9.92658 20.023 13.0047 23.5287 13.7058L29.9996 15M39.6034 16.8717C42.2211 16.6925 44.7818 17.6922 46.5857 19.5974C48.2769 21.3837 49.231 23.7342 49.2722 26.1801L49.2654 26.746L49.201 28.3249C49.0633 31.6983 48.5206 35.0414 47.5856 38.2823L47.2166 39.4928L46.2988 42.3494C45.1685 45.8669 42.3615 48.5911 38.8117 49.6155C37.3045 50.0504 35.2508 49.9567 32.6506 49.3344L31.9279 49.1516C30.664 48.8153 29.334 48.8153 28.0701 49.1517C25.1258 49.9354 22.8316 50.0899 21.1875 49.6155C17.6377 48.5911 14.8307 45.8669 13.7004 42.3494L12.7825 39.4928C11.6206 35.8767 10.9531 32.12 10.7982 28.3249L10.7338 26.746C10.6257 24.0992 11.5922 21.5211 13.4134 19.5974C15.2173 17.6922 17.7781 16.6925 20.3957 16.8717L21.941 16.9776C24.1627 17.1297 26.8495 18.7602 30.0012 21.8691C32.9184 18.9063 35.4093 17.2947 37.4737 17.0344L38.0582 16.9776L39.6034 16.8717Z" stroke="#8BAA36" stroke-width="2" stroke-linecap="round"/>
</svg>
