<svg width="60" height="60" viewBox="0 0 60 60" fill="none" xmlns="http://www.w3.org/2000/svg">
<g clip-path="url(#clip0_2212_1043)">
<path fill-rule="evenodd" clip-rule="evenodd" d="M16.3444 24.6388C20.5977 20.3854 26.8247 19.7164 30.2528 23.1444C31.1702 24.0618 31.7942 25.1797 32.1345 26.4066C30.5121 28.4436 28.6744 30.2974 26.6535 31.9355C26.6579 30.1196 26.0518 28.422 24.7973 27.1675C22.2057 24.576 17.7237 24.7517 14.2312 27.3852C14.7884 26.4164 15.4949 25.4882 16.3444 24.6388ZM43.4604 28.8777L43.3173 28.872C48.1653 28.872 52.0953 33.7483 52.0953 39.7634C52.0953 40.4847 52.0388 41.1896 51.9315 41.8703C50.7187 38.1793 47.7723 35.5744 44.3302 35.5744C43.6603 35.5744 43.0093 35.673 42.3862 35.8591C41.9518 35.0459 41.3951 34.2868 40.716 33.6076L40.8732 33.7743C41.7265 32.5074 42.4712 31.1627 43.0946 29.7541L43.4604 28.8777ZM42.6758 9.5402C44.0072 9.83468 44.975 10.9864 45.0357 12.3486L45.2894 18.039C45.5482 23.8462 43.8899 29.2948 40.8743 33.7725L40.716 33.6076C36.7689 29.6606 30.1204 29.8492 25.5421 33.9172L25.9346 33.9212C28.0217 33.98 30.0064 34.7463 31.5062 36.2461C32.7811 37.521 33.526 39.1464 33.7568 40.8873C29.913 43.4732 25.3316 45.0685 20.364 45.29C19.5892 45.3245 18.8132 45.3245 18.0384 45.29L12.348 45.0363C10.6853 44.9622 9.39738 43.5542 9.4715 41.8914C9.53222 40.5292 10.5 39.3774 11.8314 39.083C25.4421 36.0725 36.072 25.4426 39.0824 11.832C39.4418 10.2068 41.0507 9.18075 42.6758 9.5402ZM25.5421 33.9172C30.1204 29.8492 36.7689 29.6606 40.716 33.6076C44.8296 37.7212 44.4511 44.7693 39.8706 49.3498C36.1738 53.0466 30.8698 54.0063 26.7983 52.0766C28.1647 51.5372 29.4695 50.6967 30.6042 49.562C34.5304 45.6358 34.9342 39.6741 31.5062 36.2461C30.0064 34.7463 28.0217 33.98 25.9346 33.9212L25.5421 33.9172Z" stroke="#8BAA36" stroke-width="2" stroke-linecap="round"/>
</g>
<defs>
<clipPath id="clip0_2212_1043">
<rect width="60" height="60" fill="white"/>
</clipPath>
</defs>
</svg>
