<svg width="51" height="38" viewBox="0 0 51 38" fill="none" xmlns="http://www.w3.org/2000/svg">
<path fill-rule="evenodd" clip-rule="evenodd" d="M14.9009 12.4445C26.4991 5.21029 41.7658 8.74798 49 20.3462L48.4285 21.2207C47.0532 23.2314 45.3875 25.0296 43.4841 26.556C33.7546 34.3586 19.9349 33.617 11.0927 25.3279C9.67506 28.9832 5.99628 31.4495 1.87973 31.1509L1.5 31.1154V30.4711C1.5 26.6093 3.19069 23.0818 5.93016 20.6681C3.38345 18.6921 1.70625 15.6679 1.51775 12.2675L1.5 11.6257V9.57692L2.01819 9.59776C5.91109 9.85012 9.24418 12.2366 10.8176 15.631C12.0584 14.4327 13.4281 13.3632 14.9009 12.4445ZM29.0931 31.9755L29.422 31.9595C27.5995 33.7745 25.3654 35.153 22.8227 35.8995C20.8471 36.4795 18.8588 36.6271 16.9414 36.3952C17.8777 34.4935 18.6038 32.4605 19.0963 30.3423C22.2833 31.571 25.6932 32.1231 29.0931 31.9755ZM31.5331 8.59656L31.792 8.98612C26.8929 8.2243 21.7461 8.9232 17.0519 11.2451C15.6174 8.21406 13.6933 5.57184 11.4269 3.41267C12.4048 2.86905 13.4519 2.42504 14.5573 2.10049C21.0818 0.184939 27.7456 2.98619 31.5331 8.59656Z" stroke="#8BAA36" stroke-width="2" stroke-linecap="round"/>
<path fill-rule="evenodd" clip-rule="evenodd" d="M37.75 18V17.75V18Z" stroke="#8BAA36" stroke-width="2" stroke-linecap="round" stroke-linejoin="round"/>
</svg>
