<svg width="51" height="51" viewBox="0 0 51 51" fill="none" xmlns="http://www.w3.org/2000/svg">
<path d="M19 12C28.665 12 36.5 19.835 36.5 29.5C36.5 30.4365 36.4264 31.3558 36.2848 32.2524L28.2893 24.2595C25.6392 26.9097 24 30.5708 24 34.6149C24 38.4581 25.4805 41.9556 27.9022 44.5681C25.295 46.1135 22.251 47 19 47C9.33502 47 1.5 39.165 1.5 29.5C1.5 19.835 9.33502 12 19 12ZM19 12L12.5291 10.7058C9.02345 10.0047 6.5 6.92658 6.5 3.35147V2L12.9709 3.29417C16.4766 3.99531 19 7.07342 19 10.6485V14.5M19 12V14.5M19 14.5C19 11.4357 20.7313 8.63434 23.4721 7.26393L24 7M31.4756 27.6863L31.347 27.5576C30.3914 26.6021 29.3722 25.5829 28.2893 24.5C25.6392 27.1502 24 30.8113 24 34.8553C24 35.8332 24.0958 36.7887 24.2787 37.713C24.467 38.6654 24.7478 39.5846 25.1111 40.4609C25.8534 42.2509 26.9404 43.8617 28.2893 45.2107C29.6383 46.5596 31.2491 47.6466 33.0391 48.3889C33.9154 48.7522 34.8346 49.033 35.787 49.2213C36.7113 49.4042 37.6668 49.5 38.6447 49.5C42.6887 49.5 46.3498 47.8608 49 45.2107C47.9171 44.1278 46.8979 43.1086 45.9424 42.153L45.8137 42.0244M31.4756 27.6863C29.6409 29.521 28.506 32.0556 28.506 34.8553M31.4756 27.6863L32.0516 28.2623C32.2826 28.4932 32.5095 28.7202 32.7324 28.9431L34.0224 30.2331C34.2294 30.4401 34.4325 30.6431 34.6315 30.8422L37.3189 33.5296C37.7966 34.0073 38.2386 34.4492 38.6447 34.8553M28.506 34.8553C28.506 40.4547 33.0453 44.994 38.6447 44.994M28.506 34.8553C28.506 35.5323 28.5724 36.1938 28.6989 36.8336L38.6447 34.8553M38.6447 44.994C41.4444 44.994 43.979 43.8591 45.8137 42.0244M38.6447 44.994C37.2698 44.994 35.9588 44.7203 34.7633 44.2244L38.6447 34.8553M45.8137 42.0244L45.2377 41.4484C45.0068 41.2174 44.7798 40.9905 44.5569 40.7676L43.2669 39.4776C43.0599 39.2706 42.8569 39.0675 42.6578 38.8685L39.9704 36.1811C39.4927 35.7034 39.0508 35.2614 38.6447 34.8553" stroke="#8BAA36" stroke-width="2" stroke-linecap="round"/>
</svg>
