<svg width="60" height="60" viewBox="0 0 60 60" fill="none" xmlns="http://www.w3.org/2000/svg">
<g clip-path="url(#clip0_2212_1031)">
<path fill-rule="evenodd" clip-rule="evenodd" d="M18.0803 53.5614C16.6158 55.0259 14.2415 55.0259 12.777 53.5614C11.6229 52.4073 11.3783 50.6881 12.0432 49.2945L11.7406 48.9919C10.3469 49.6568 8.62778 49.4122 7.4737 48.2581C6.00924 46.7936 6.00924 44.4193 7.4737 42.9548C8.93817 41.4903 11.3125 41.4903 12.777 42.9548C13.0874 43.2652 13.332 43.6164 13.5108 43.9912L18.0756 39.4246C18.554 40.0958 19.0942 40.7365 19.6964 41.3387C20.2992 41.9415 20.9406 42.4822 21.6125 42.961L17.0462 47.5254C17.4201 47.7041 17.7706 47.9484 18.0803 48.2581C19.5448 49.7226 19.5448 52.0969 18.0803 53.5614ZM31.0017 8.82375L31.0353 8.78663C33.9642 5.8577 41.0873 8.23207 46.9452 14.0899C52.803 19.9478 55.1774 27.0709 52.2485 29.9998L40.9096 41.3387C35.0518 47.1965 25.5543 47.1965 19.6964 41.3387C13.8386 35.4808 13.8386 25.9833 19.6964 20.1255L31.0017 8.82375ZM31.0353 8.78663C28.1063 11.7156 30.4807 18.8387 36.3386 24.6965C42.1964 30.5544 49.3195 32.9288 52.2485 29.9998C55.1774 27.0709 52.803 19.9478 46.9452 14.0899C41.0873 8.23207 33.9642 5.8577 31.0353 8.78663ZM38.1063 15.8577C37.13 16.834 37.9215 19.2084 39.8741 21.161C41.8267 23.1136 44.2011 23.9051 45.1774 22.9288C46.1537 21.9525 45.3622 19.5781 43.4096 17.6255C41.457 15.6728 39.0826 14.8814 38.1063 15.8577Z" stroke="#8BAA36" stroke-width="2" stroke-linecap="round"/>
</g>
<defs>
<clipPath id="clip0_2212_1031">
<rect width="60" height="60" fill="white"/>
</clipPath>
</defs>
</svg>
