<svg width="32" height="32" viewBox="0 0 32 32" fill="none" xmlns="http://www.w3.org/2000/svg">
<path d="M15.75 23.2188C17.3906 23.2188 18.7854 22.6447 19.9342 21.4967C21.0822 20.3479 21.6562 18.9531 21.6562 17.3125C21.6562 15.6719 21.0822 14.2771 19.9342 13.1283C18.7854 11.9803 17.3906 11.4062 15.75 11.4062C14.1094 11.4062 12.7146 11.9803 11.5658 13.1283C10.4178 14.2771 9.84375 15.6719 9.84375 17.3125C9.84375 18.9531 10.4178 20.3479 11.5658 21.4967C12.7146 22.6447 14.1094 23.2188 15.75 23.2188ZM5.25 27.8125C4.52812 27.8125 3.91038 27.5557 3.39675 27.0421C2.88225 26.5276 2.625 25.9094 2.625 25.1875V9.4375C2.625 8.71562 2.88225 8.09787 3.39675 7.58425C3.91038 7.06975 4.52812 6.8125 5.25 6.8125H9.38438L11.8125 4.1875H19.6875L22.1156 6.8125H26.25C26.9719 6.8125 27.5901 7.06975 28.1046 7.58425C28.6182 8.09787 28.875 8.71562 28.875 9.4375V25.1875C28.875 25.9094 28.6182 26.5276 28.1046 27.0421C27.5901 27.5557 26.9719 27.8125 26.25 27.8125H5.25Z" fill="#C4C4C4"/>
</svg>
